<svg xmlns="http://www.w3.org/2000/svg" width="1500" height="600" viewBox="0 0 1500 600">
<defs>
  <linearGradient id="bg" x1="0" x2="1"><stop stop-color="#0b0f14"/><stop offset="1" stop-color="#151a21"/></linearGradient>
  <radialGradient id="g1"><stop stop-color="#55b8ff" stop-opacity=".9"/><stop offset="1" stop-color="#55b8ff" stop-opacity="0"/></radialGradient>
  <filter id="glow"><feGaussianBlur stdDeviation="18"/></filter>
</defs>
<rect width="1500" height="600" fill="url(#bg)"/>
<circle cx="980" cy="300" r="360" fill="url(#g1)" filter="url(#glow)" opacity=".25"/>
<g opacity=".18" stroke="#7c8aa0"><path d="M0 120H1500M0 240H1500M0 360H1500M0 480H1500"/><path d="M300 0V600M600 0V600M900 0V600M1200 0V600"/></g>
<text x="110" y="250" fill="#f7f9fb" font-family="Arial,sans-serif" font-size="82" font-weight="700" letter-spacing="3">KAITOO</text>
<text x="113" y="318" fill="#a8b3c2" font-family="Arial,sans-serif" font-size="28" letter-spacing="9">COMMAND CENTER</text>
<g transform="translate(900 180)">
 <rect x="0" y="0" width="112" height="160" rx="18" fill="#14325e" stroke="#58a6ff" stroke-width="4"/>
 <circle cx="170" cy="70" r="58" fill="#ffce45"/><circle cx="230" cy="70" r="58" fill="#ff5964" opacity=".92"/><circle cx="200" cy="125" r="58" fill="#4cc9f0" opacity=".92"/>
 <path d="M350 70c55-65 150-38 154 42 3 67-79 118-154 160-75-42-157-93-154-160 4-80 99-107 154-42z" fill="#2F5D62"/><circle cx="350" cy="160" r="20" fill="#E8B04A"/>
 <rect x="540" y="0" width="118" height="118" rx="24" fill="#16222d" stroke="#63d6ff" stroke-width="3"/><path d="M568 88l28-45 25 32 15-18 22 31z" fill="#63d6ff"/>
 <g transform="translate(700 18)"><circle cx="70" cy="70" r="66" fill="#2B2F33"/><circle cx="30" cy="22" r="24" fill="#2B2F33"/><circle cx="110" cy="22" r="24" fill="#2B2F33"/><rect x="18" y="52" width="104" height="28" rx="14" fill="#1DE9B6"/><rect x="3" y="44" width="18" height="54" rx="9" fill="#111315"/><rect x="119" y="44" width="18" height="54" rx="9" fill="#111315"/></g>
</g>
</svg>